<svg version="1.1" id="Capa_1" xmlns="http://www.w3.org/2000/svg" xmlns:xlink="http://www.w3.org/1999/xlink" x="0px" y="0px"
	 viewBox="0 0 595.28 841.89" style="enable-background:new 0 0 595.28 841.89;" xml:space="preserve">
<style type="text/css">
	.st0{fill:none;stroke:#000000;stroke-miterlimit:10;}
	.st1{fill:#F5DCB2;stroke:#CA9E67;stroke-miterlimit:10;}
</style>
<path class="st0" d="M89.83,384.93"/>
<path class="st1" d="M417.7,486c-0.76-5.42-4.11-24.47-20.89-40.02c-17.21-15.95-37.07-17.57-42.43-17.84
	c5.58-1.69,23.44-7.88,36.16-26.2c10.75-15.48,11.91-31.1,12.04-37.29c-0.69-6.12-3.62-24.92-19.27-41.13
	c-18.47-19.12-41.52-21.06-46.93-21.38H221.31l0.32-111.54c12.96,0.11,25.93,0.21,38.89,0.32c5.38,1.12,21.04,5.09,33.91,19.45
	c14.59,16.28,15.76,34.92,15.91,40.02c0.26,1.66,1.7,2.89,3.38,2.89c1.68,0,3.12-1.24,3.38-2.89c-0.64-17.89-1.29-35.79-1.93-53.68
	c-0.06-0.86-0.48-5.56-4.5-8.84c-2.83-2.31-5.91-2.66-7.07-2.73H141.91v5.79l20.09-0.32l0.38,238.07l-20.46-0.11v6.32l99.32-0.48
	v-6.27l-19.93,0.32V308.57h34.07l0.16,244.45h-15.11v3.05c39.38,0,78.75,0,118.12,0c5.3-0.55,25.5-3.27,41.62-20.57
	C419.13,515.18,417.97,490.3,417.7,486z M295.45,309.89h43.07c5.72,4.67,15,13.49,21.86,27.4c5.34,10.81,7.25,20.71,7.98,27.38
	c0.54,6.86,1.72,32.24-15.91,51.7c-4.87,5.38-10.12,9.14-14.79,11.79c-14.07,0-28.14,0-42.21,0V309.89z M383.91,500.88
	c-0.92,6.73-3.89,21.4-15.33,35.22c-7.5,9.06-15.79,14.32-21.28,17.18c-17.41,0-34.82,0-52.23,0V430.71h48.54
	c6.17,3,18.5,10.04,28.12,24.21C384.95,474.38,384.37,494.42,383.91,500.88z"/>
</svg>
